<mxfile host="app.diagrams.net" modified="2022-02-07T05:43:50.631Z" agent="5.0 (X11; Linux x86_64) AppleWebKit/537.36 (KHTML, like Gecko) Chrome/97.0.4692.99 Safari/537.36" etag="IklGOiIjZRhIVjneUdJ_" version="16.4.5" type="github">
  <diagram id="RhKwPuoBWpZ2wNEsa9-k" name="Page-1">
    <mxGraphModel dx="1206" dy="557" grid="1" gridSize="10" guides="1" tooltips="1" connect="1" arrows="1" fold="1" page="1" pageScale="1" pageWidth="827" pageHeight="1169" math="0" shadow="0">
      <root>
        <mxCell id="0" />
        <mxCell id="1" parent="0" />
        <mxCell id="f6bs42zLTRaNAxAgxp5K-1" value="" style="rounded=0;whiteSpace=wrap;html=1;" vertex="1" parent="1">
          <mxGeometry x="80" y="40" width="390" height="480" as="geometry" />
        </mxCell>
        <mxCell id="f6bs42zLTRaNAxAgxp5K-2" value="&lt;font style=&quot;font-size: 24px&quot;&gt;3d建模和動畫&lt;/font&gt;" style="rounded=0;whiteSpace=wrap;html=1;" vertex="1" parent="1">
          <mxGeometry x="120" y="80" width="330" height="50" as="geometry" />
        </mxCell>
        <mxCell id="f6bs42zLTRaNAxAgxp5K-4" value="戰鬥機制：偶然連擊or防禦" style="rounded=0;whiteSpace=wrap;html=1;fontSize=24;" vertex="1" parent="1">
          <mxGeometry x="120" y="140" width="330" height="60" as="geometry" />
        </mxCell>
      </root>
    </mxGraphModel>
  </diagram>
</mxfile>
